<?xml version="1.0" standalone="no"?><!DOCTYPE svg PUBLIC "-//W3C//DTD SVG 1.1//EN" "http://www.w3.org/Graphics/SVG/1.1/DTD/svg11.dtd"><svg t="1749287757004" class="icon" viewBox="0 0 1024 1024" version="1.1" xmlns="http://www.w3.org/2000/svg" p-id="7103" xmlns:xlink="http://www.w3.org/1999/xlink" width="200" height="200"><path d="M490.576348 260.823031c0-16.456111 0.018064-29.606548 0-42.756985-0.036128-11.127293 0.37934-22.27265-0.740616-33.363816-0.650296-6.394581 1.318657-11.633079 5.780413-16.094835 1.029636-1.029636 2.00508-2.221846 3.468247-2.456675 5.726221-0.939317 11.181485-1.318657 16.16709 3.016652 7.803556 6.791984 10.928592 15.64324 12.464013 25.397686 0.433531 2.709568 0.830934 5.4372 1.445103 8.092577 1.300593 5.653966 2.113463 11.307931 2.203782 17.142534 0.270957 19.653401-0.054191 39.270675-1.246401 58.887948-0.198702 3.341801 0.072255 6.647474 0.216766 9.953147 0.270957 6.539091-0.939317 12.951736-1.679933 19.400509-0.758679 6.593283 1.156082 11.885972 7.062941 15.498729 1.71606 1.0477 3.414056 1.499294 5.310754 1.463167 5.672029-0.090319 11.163421-0.993508 16.618685-2.637313 6.900367-2.077336 13.746542-4.407564 20.93593-5.455264 1.987017-0.289021 3.95597-0.81287 5.906858-1.372848 4.064352-1.156082 8.164832-1.806379 12.391759-1.86057 5.635902-0.072255 11.235676-0.957381 16.853514-1.300592 8.020322-0.505786 15.896133 0.126447 23.049393 4.371436 0.993508 0.596105 1.932825 1.246401 2.890206 1.914762 8.544172 6.015241 8.20096 14.505222 2.709568 21.387524-4.479819 5.599774-10.296359 8.164832-17.395428 8.110641-6.213943-0.036128-12.427886 0.036128-18.569573 1.174146-8.092577 1.517358-16.239345 2.799887-24.277731 4.461756-8.309342 1.71606-16.401919 4.570138-24.458369 7.333898-5.599774 1.914762-11.362122 3.215354-16.998024 5.093988-7.15326 2.38442-10.693762 7.424217-13.042055 13.891053-0.993508 2.727632-1.408975 5.58171-1.463167 8.508044-0.126447 7.370025-0.270957 14.740051-1.697996 22.019757-0.433531 2.257973-0.505786 4.606266-0.52385 6.900367-0.054191 9.68219 0 19.36438-0.018063 29.046571-0.018064 6.810048 1.788315 13.132374 4.967541 19.093423 2.655377 5.021733 6.4849 8.002258 12.554333 7.279707 3.666949-0.433531 7.15326 0.343212 10.476997 2.077335 3.269546 1.71606 6.918431 2.023144 10.531188 2.167655 15.462602 0.596105 30.907141 0.054191 46.315552-1.372848 0.867062-0.072255 1.752187-0.126447 2.565058-0.361276 8.995766-2.52893 18.208298-3.034716 27.475021-3.070844 8.164832-0.036128 15.932261-2.673441 23.952582-3.703076 12.608524-1.607677 25.162856-3.666949 37.789444-5.130116 6.322326-0.740615 12.680779 0.650296 18.966977 1.282529 5.870731 0.596105 11.633079 2.149591 17.413492 3.395992 3.757268 0.81287 7.044877 2.492803 9.664126 5.419136 4.335309 4.823031 4.407564 11.289867 0.054192 16.076771-1.878634 2.059272-4.118544 3.594694-6.683602 4.714649-1.589613 0.686424-3.359865 1.138019-4.732712 2.131527-7.225515 5.220435-15.697432 6.521027-24.133221 7.496472-14.342647 1.661868-28.594976 3.847587-43.046006 4.841095-14.107818 0.975445-28.215636 2.221846-42.323455 3.377928-1.57155 0.126447-3.143099 0.451595-4.696584 0.758679-12.174993 2.420548-24.494496 4.136607-36.723681 6.250071-11.813717 2.041208-23.519052 4.642393-35.043748 8.002258-3.19729 0.939317-6.412645 1.697996-9.664127 2.420548-3.919842 0.885126-4.479819 3.070844-1.86057 6.159751 7.207451 8.48998 15.047135 16.365792 23.464861 23.645498 5.14818 4.461756 9.971211 9.230596 14.360711 14.396839a127.205193 127.205193 0 0 0 17.702512 17.160599c12.987863 10.35055 25.632515 21.116568 38.764888 31.304544 6.828112 5.29269 14.324584 9.736382 21.550099 14.505221 9.15834 6.051369 17.919277 12.644651 26.915044 18.93085 8.291279 5.798476 17.106407 10.72989 26.029918 15.49873 9.302851 4.967542 18.407 10.278295 27.601468 15.444538 7.406153 4.172735 14.97488 8.056449 22.182331 12.626588 7.15326 4.534011 15.065199 7.893875 23.013266 11.01891 5.635902 2.221846 10.910528 5.310754 16.528365 7.550664 15.300028 6.087496 30.076207 13.421394 45.574937 18.948913 8.020322 2.872142 16.185154 5.29269 24.349986 7.695174 3.486311 1.029636 6.737793 2.565058 10.115721 3.811459 7.713237 2.872142 15.607113 5.166243 23.537115 7.333898 4.570138 1.246401 9.01383 3.125035 13.078183 5.653965 3.179227 1.968953 3.486311 3.57663 1.752187 6.918431-2.023144 3.919842-5.14818 6.701665-9.68219 5.780412-8.742873-1.788315-17.287045 0.216765-25.867344 0.81287-5.924922 0.397403-11.831781 0.704488-17.73864 0.505787-13.276884-0.433531-26.571832-0.848998-39.848715-1.517359-6.051369-0.307084-12.120802-0.939317-18.081852-1.932825-6.701665-1.119955-13.367203-2.330229-20.195315-2.330229-4.660457 0-8.634491-2.438611-12.680779-4.172734-9.15834-3.901778-18.226362-8.074513-26.481513-13.746543-10.58538-7.279706-21.875247-13.511713-31.864521-21.676545a57.417556 57.417556 0 0 0-11.307931-7.189388c-3.522439-1.697996-6.394581-4.425628-9.627999-6.593282-6.575219-4.443692-13.692351-7.984194-20.339825-12.337567-7.388089-4.823031-14.523285-9.917019-21.279142-15.589049-8.959639-7.514536-18.497319-14.30652-28.071126-21.008185-6.141688-4.317245-12.373695-8.471916-18.009597-13.49365-4.208863-3.757268-9.357042-6.232007-13.656223-9.917019-9.429297-8.074513-18.117979-17.016088-27.80017-24.819645-3.937906-3.179227-7.839684-6.376517-11.849844-9.447361-2.203782-1.679932-4.154671-3.57663-6.069433-5.545582-2.402484-2.456675-5.184307-3.703076-8.598363-2.420548-2.944397 1.101891-4.877223 4.154671-4.443692 8.146768 0.52385 4.91335 0.469658 9.790573 0.541914 14.68586 0.126447 9.266723-0.451595 18.497319-1.101891 27.70985-0.921253 13.294948-0.722552 26.571832-0.162574 39.848716 0.162574 3.901778 0.451595 7.803556 0.451594 11.687271 0.054191 39.740333 0.054191 79.480666 0.090319 119.220999 0 4.91335-0.234829 9.808637-1.210273 14.667795-0.415467 2.095399-0.343212 4.317245-0.415468 6.466836-0.451595 16.329664 0.867062 32.623201 0.939317 48.952865 0.018064 5.81654-0.505786 11.362122-2.962461 16.871578-2.348292 5.274626-6.4849 7.875811-11.25374 10.043466-1.788315 0.81287-3.468247 0.054191-4.714648-1.282529-5.58171-6.051369-11.271804-12.012419-16.582557-18.298617a15.318092 15.318092 0 0 1-3.486311-11.362122c0.939317-9.39317 0.505786-18.786339 0.487722-28.161446-0.036128-19.21987 1.318657-38.421677 0.81287-57.641546-0.307084-11.849845-0.794807-23.69969-0.397403-35.531471 0.867062-24.855772-0.722552-49.69348-1.210274-74.531188-0.343212-17.034152-0.975445-34.068304-1.300592-51.120519-0.198702-10.693762 0.469658-21.369461 1.824442-31.990969 0.216765-1.71606 0.632233-3.43212 0.361276-5.166243-0.52385-3.395992-3.179227-4.588202-5.979114-2.52893-1.264465 0.921253-2.420548 2.131527-3.251482 3.450183-3.847587 6.159752-8.977703 11.289867-13.385266 16.998025-6.791984 8.797065-14.342647 17.034152-21.008186 25.885407-11.235676 14.920689-24.584815 27.980807-35.983065 42.702795-4.877223 6.286198-10.115721 12.247248-15.607112 17.937341-4.895286 5.075924-9.465425 10.495061-14.812306 15.173582-4.895286 4.281118-8.34547 9.935083-13.060119 14.432966-10.856336 10.368614-21.044313 21.423652-32.47869 31.178098-7.695174 6.557155-15.101327 13.421394-23.211967 19.472763-7.96613 5.96105-15.914197 11.976291-24.494497 17.016088-9.212532 5.419136-18.858594 9.971211-29.42591 12.247248-2.38442 0.505786-4.642393 1.625741-7.00875 2.276037-4.317245 1.174146-6.322326-0.596105-5.997177-5.093988 0.090319-1.300593 0.469658-2.619249 0.270957-3.86565-0.632233-4.172735 0.975445-7.225515 4.082416-9.862828 10.567316-8.977703 20.159187-18.966977 30.112334-28.594976 6.448772-6.232007 13.728479-11.488569 20.321761-17.558002 2.980525-2.745696 5.58171-5.888795 8.562236-8.562236 8.435789-7.532599 14.902625-16.871578 23.230031-24.440304 4.804968-4.371437 9.609935-8.760937 14.469094-13.078183 8.363534-7.460344 15.029071-16.365792 21.766864-25.217047 0.433531-0.578041 0.776743-1.264465 1.318656-1.71606 7.82162-6.647474 12.662715-15.697432 19.093424-23.464861 3.865651-4.696585 6.791984-10.043466 9.953147-15.227773 7.388089-12.102738 15.715495-23.519052 24.151284-34.899238 6.015241-8.110641 11.506633-16.600621 17.016088-25.090601 5.726221-8.815128 11.488569-17.720576 19.21987-25.03641 0.415467-0.397403 0.81287-0.81287 1.210274-1.246401 1.011572-1.119955 1.770251-2.38442 1.138019-3.919842-0.650296-1.57155-2.149591-1.842506-3.612758-1.896698-4.3895-0.14451-8.616427 0.921253-12.789161 2.041208-4.479819 1.19221-8.977703 2.221846-13.511714 3.106972-8.815128 1.71606-17.196726 4.967542-25.813152 7.370025-12.084674 3.377928-23.98871 7.388089-36.326277 9.953147-6.755857 1.408975-13.493649 3.070844-20.141124 5.039797-11.633079 3.450183-23.392605 6.466836-35.748236 5.81654-5.364945-0.289021-10.657635-0.686424-15.751623-2.583122-1.354784-0.505786-2.76376-1.029636-4.172735-1.101891-5.075924-0.307084-8.941575-2.926334-12.608524-6.10556-4.91335-4.281118-9.519616-8.86932-13.529777-14.017499-4.714649-6.051369-1.138019-14.848434 6.502964-16.112899 3.179227-0.52385 6.358453-0.325148 9.483489 0.270957 4.136607 0.776743 8.309342 0.957381 12.518205 0.95738 5.635902 0 11.25374 0.108383 16.889641 0.37934 7.388089 0.361276 14.685859-0.903189 21.929438-2.257973 10.079594-1.896698 20.141123-3.829523 30.256845-5.52752 6.430708-1.083827 12.73497-2.745696 18.966977-4.479819 12.518205-3.486311 25.253175-6.141688 37.753316-9.700254 8.905447-2.546994 17.467683-6.087496 26.355067-8.598363 6.683601-1.878634 13.367203-3.685013 20.03274-5.599774 3.739204-1.065763 7.478408-2.185718 11.163421-3.468247 4.136607-1.445103 6.10556-4.62433 6.087497-9.447361-0.018064-18.208298-0.072255-36.416596-0.072255-54.624894 0-12.572396 0.072255-25.144793 0.108382-37.717189 0-1.300593 0.054191-2.619249-0.126446-3.901778-0.469658-3.215354-2.90827-6.015241-5.997178-5.852668-4.443692 0.252893-8.562235-1.101891-12.825289-1.661868-7.062941-0.903189-14.125882-0.541914-21.206887-0.072255-8.616427 0.596105-16.600621 3.757268-24.819644 5.906858-12.012419 3.143099-23.808072 7.135196-36.091448 9.194468-6.069433 1.011572-10.187976 4.335309-13.168501 9.519616-3.974033 6.900367-8.616427 13.349139-13.34914 19.74372-8.580299 11.615016-19.328253 20.899802-31.268416 29.046571-6.954558 4.750776-14.252329 8.815128-21.586227 12.771098-7.171324 3.883714-15.209709 5.328817-23.46486 4.804968-1.842506-0.126447-3.504375-0.632233-4.136607-2.546994-0.650296-1.914762 0.451595-3.359865 1.770251-4.570139 3.612758-3.323737 7.099069-6.846176 10.982783-9.808637 7.67711-5.852667 13.511713-13.421394 19.797911-20.55659 5.256562-5.96105 10.639571-11.813717 14.595541-18.786339 1.228338-2.131527 2.330229-4.317245 3.215354-6.611347 1.950889-5.130116 3.72114-10.314423 6.394581-15.137454 3.034716-5.491391 4.010161-11.741462 5.979114-17.612193 4.208863-12.536269 6.448772-25.451877 6.159751-38.746824-0.090319-3.757268 0.054191-7.532599 0.776743-11.235676 1.138019-5.870731 1.300593-11.759526 0.632233-17.684449-0.361276-3.233418 0.126447-6.322326 1.788315-9.194468 3.251482-5.653966 7.189388-7.406153 13.439458-5.509455 3.57663 1.101891 7.062941 2.565058 10.513124 4.028225 11.578888 4.91335 16.094835 14.216201 16.058708 26.246683-0.018064 4.335309-0.216765 8.670618-0.23483 13.005928-0.018064 4.62433 1.607677 7.857748 6.033305 10.476996 6.069433 3.57663 12.102738 4.154671 18.677957 3.016653 18.244426-3.179227 36.163703-7.767429 53.79396-13.349139 5.075924-1.607677 10.025402-3.685013 14.866497-5.942986 3.883714-1.806379 6.358453-4.91335 6.394581-9.519616 0.018064-3.468247 0.198702-6.936494 0.162574-10.404742-0.162574-22.453288 1.968953-44.960768 1.138019-64.216766z" p-id="7104"></path></svg>